<svg width="17" height="17" viewBox="0 0 17 17" fill="none" xmlns="http://www.w3.org/2000/svg">
<path d="M7.39075 5.89645V7.0669H6.53395V8.49745H7.39075V12.75H9.15195V8.49745H10.3335C10.3335 8.49745 10.4448 7.8115 10.4984 7.06095H9.15875V6.08345C9.15875 5.9364 9.35085 5.74005 9.54125 5.74005H10.5001V4.25H9.1953C7.3474 4.25 7.39075 5.68225 7.39075 5.89645Z" fill="#A9AEC3"/>
<path d="M3.4 1.7C2.94913 1.7 2.51673 1.87911 2.19792 2.19792C1.87911 2.51673 1.7 2.94913 1.7 3.4V13.6C1.7 14.0509 1.87911 14.4833 2.19792 14.8021C2.51673 15.1209 2.94913 15.3 3.4 15.3H13.6C14.0509 15.3 14.4833 15.1209 14.8021 14.8021C15.1209 14.4833 15.3 14.0509 15.3 13.6V3.4C15.3 2.94913 15.1209 2.51673 14.8021 2.19792C14.4833 1.87911 14.0509 1.7 13.6 1.7H3.4ZM3.4 0H13.6C14.5017 0 15.3665 0.358213 16.0042 0.995837C16.6418 1.63346 17 2.49826 17 3.4V13.6C17 14.5017 16.6418 15.3665 16.0042 16.0042C15.3665 16.6418 14.5017 17 13.6 17H3.4C2.49826 17 1.63346 16.6418 0.995837 16.0042C0.358213 15.3665 0 14.5017 0 13.6V3.4C0 2.49826 0.358213 1.63346 0.995837 0.995837C1.63346 0.358213 2.49826 0 3.4 0Z" fill="#A9AEC3"/>
</svg>
