<svg width="19" height="15" viewBox="0 0 19 15" fill="none" xmlns="http://www.w3.org/2000/svg">
<path d="M18.5996 1.73077C17.9246 2.07692 17.2496 2.19231 16.4621 2.30769C17.2496 1.84615 17.8121 1.15385 18.0371 0.230769C17.3621 0.692307 16.5746 0.923077 15.6746 1.15385C14.9996 0.461538 13.9871 0 12.9746 0C10.6121 0 8.81211 2.30769 9.37461 4.61538C6.33711 4.5 3.63711 3 1.72461 0.692308C0.712109 2.42308 1.27461 4.61538 2.84961 5.76923C2.28711 5.76923 1.72461 5.53846 1.16211 5.30769C1.16211 7.03846 2.39961 8.65385 4.08711 9.11538C3.52461 9.23077 2.96211 9.34615 2.39961 9.23077C2.84961 10.7308 4.19961 11.8846 5.88711 11.8846C4.53711 12.9231 2.51211 13.5 0.599609 13.2692C2.28711 14.3077 4.19961 15 6.22461 15C13.0871 15 16.9121 9.11538 16.6871 3.69231C17.4746 3.23077 18.1496 2.53846 18.5996 1.73077Z" fill="#A9AEC3"/>
</svg>
